<svg width="268" height="33" viewBox="0 0 268 33" fill="none" xmlns="http://www.w3.org/2000/svg">
<path d="M62.4593 12.2009H39.7979L38.9583 12.829V32.9943H45.2315V25.4324L45.8303 24.8957H62.4601C66.659 24.8957 68.6275 23.7656 68.6275 20.8662V16.2361C68.6267 13.3317 66.659 12.2009 62.4593 12.2009ZM62.4593 19.6561C62.4593 21.0222 61.5558 21.3059 59.5873 21.3059H45.899L45.2307 20.656V16.3363L45.8295 15.7883H59.5873C61.5558 15.7883 62.4593 16.0687 62.4593 17.4413V19.6561Z" fill="black"/>
<path d="M80.0669 16.0154L85.465 23.9265L85.166 24.6928H73.228L70.1807 28.4426H87.9507L89.1822 29.1928L91.9411 32.9992H99.1202L83.3841 11.9431" fill="black"/>
<path d="M151.452 28.9034V23.3065L152.097 22.7488H164.107V19.1849H145.073V32.9984H173.151V29.4515H152.126" fill="black"/>
<path d="M173.447 12.2009H145.073V16.1197H173.447V12.2009Z" fill="black"/>
<path d="M113.425 15.9119H136.284C135.932 13.0044 134.128 12.1977 129.553 12.1977H113.182C108.019 12.1977 106.372 13.2056 106.372 17.1139V28.0789C106.372 31.9912 108.019 32.9992 113.182 32.9992H129.553C134.196 32.9992 135.973 32.127 136.095 29.1111H113.425L112.753 28.4782V16.3355" fill="black"/>
<path d="M23.7038 20.3036H7.07405L6.58435 19.7644V16.2062L7.07163 15.8295H29.4898L29.7961 15.0802C29.0324 13.1151 27.055 12.1985 23.383 12.1985H7.81023C2.65054 12.1985 1.00122 13.2065 1.00122 17.1147V19.4136C1.00122 23.3267 2.65054 24.3331 7.81023 24.3331H24.4029L24.9241 24.7906V28.5106L24.499 29.0909H5.51928V29.0731H0.547876C0.547876 29.0731 -0.0210235 29.3585 0.000795029 29.4919C0.425045 32.2256 2.2869 33 6.74435 33H23.7038C28.8627 33 30.5613 31.992 30.5613 28.0797V25.2158C30.5613 21.31 28.8627 20.3036 23.7038 20.3036Z" fill="black"/>
<path d="M191.296 12.1152H181.962L181.455 13.0796L191.822 20.6382C193.785 19.5009 195.922 18.3483 198.246 17.2109" fill="black"/>
<path d="M199.66 26.3539L208.771 33H218.22L218.611 32.1197L205.006 22.1587C203.199 23.4852 201.414 24.886 199.66 26.3539Z" fill="black"/>
<path d="M189.907 32.9846H181.462L180.748 31.8667C186.491 26.3208 212.174 2.54704 268 0C268 0 221.142 1.58109 189.907 32.9846Z" fill="black"/>
</svg>
